REM DIRINDEX 1\2\4\18,1\2\4\19,1\2\5\20,1\2\5\21,1\2\6\22,1\2\7\23,1\2\8\24,1\2\8\25,1\2\9\26,1\2\10\27,1\3\11\28,1\3\11\29,1\3\11\30,1\3\11\31,1\3\12\32,1\3\12\33,1\3\12\34,1\3\12\35,1\3\13\36,1\3\13\37,1\3\14\38,1\3\14\39,1\3\15\40,1\3\15\41,1\3\15\42,1\3\16\43,1\3\16\44,1\3\17\45,1\3\17\46
REM DIRNAME folder01,folder02,folder03,folder04,folder05,folder06,folder07,folder08,folder09,folder10,folder11,folder12,folder13,folder14,folder15,folder16,folder17,folder18,folder19,folder20,folder21,folder22,folder23,folder24,folder25,folder26,folder27,folder28,folder29,folder30,folder31,folder32,folder33,folder34,folder35,folder36,folder37,folder38,folder39,folder40,folder41,folder42,folder43,folder44,folder45,folder46
TITLE ""
FILE "16.mp3" MP3
  TRACK 01 AUDIO
    TITLE "0:"
    INDEX 01 00:00:00
  TRACK 02 AUDIO
    TITLE "44:cjc024_8051"
    INDEX 01 00:00:11
  TRACK 03 AUDIO
    TITLE "0:"
    INDEX 01 00:01:68
  TRACK 04 AUDIO
    TITLE "43:cjc024_8052"
    INDEX 01 00:02:20
  TRACK 05 AUDIO
    TITLE "0:"
    INDEX 01 00:03:68
  TRACK 06 AUDIO
    TITLE "44:cjc024_8053"
    INDEX 01 00:04:58
  TRACK 07 AUDIO
    TITLE "0:"
    INDEX 01 00:05:73
  TRACK 08 AUDIO
    TITLE "43:cjc024_8054"
    INDEX 01 00:06:26
  TRACK 09 AUDIO
    TITLE "0:"
    INDEX 01 00:07:43
  TRACK 10 AUDIO
    TITLE "44:cjc024_8055"
    INDEX 01 00:08:30
  TRACK 11 AUDIO
    TITLE "0:"
    INDEX 01 00:09:36
  TRACK 12 AUDIO
    TITLE "43:cjc024_8056"
    INDEX 01 00:09:63
  TRACK 13 AUDIO
    TITLE "0:"
    INDEX 01 00:11:03
  TRACK 14 AUDIO
    TITLE "44:cjc024_8057"
    INDEX 01 00:12:01
  TRACK 15 AUDIO
    TITLE "0:"
    INDEX 01 00:14:31
  TRACK 16 AUDIO
    TITLE "43:cjc024_8058"
    INDEX 01 00:14:54
  TRACK 17 AUDIO
    TITLE "0:"
    INDEX 01 00:15:72
  TRACK 18 AUDIO
    TITLE "44:cjc024_8059"
    INDEX 01 00:16:57
  TRACK 19 AUDIO
    TITLE "0:"
    INDEX 01 00:17:69
  TRACK 20 AUDIO
    TITLE "43:cjc024_8060"
    INDEX 01 00:18:21
  TRACK 21 AUDIO
    TITLE "0:"
    INDEX 01 00:19:44
  TRACK 22 AUDIO
    TITLE "44:cjc024_8061"
    INDEX 01 00:20:37
  TRACK 23 AUDIO
    TITLE "0:"
    INDEX 01 00:22:17
  TRACK 24 AUDIO
    TITLE "43:cjc024_8062"
    INDEX 01 00:22:42
  TRACK 25 AUDIO
    TITLE "0:"
    INDEX 01 00:24:06
  TRACK 26 AUDIO
    TITLE "44:cjc024_8063"
    INDEX 01 00:24:74
  TRACK 27 AUDIO
    TITLE "0:"
    INDEX 01 00:26:54
  TRACK 28 AUDIO
    TITLE "43:cjc024_8064"
    INDEX 01 00:27:02
  TRACK 29 AUDIO
    TITLE "0:"
    INDEX 01 00:28:12
  TRACK 30 AUDIO
    TITLE "44:cjc024_8065"
    INDEX 01 00:29:03
  TRACK 31 AUDIO
    TITLE "0:"
    INDEX 01 00:31:39
  TRACK 32 AUDIO
    TITLE "43:cjc024_8066"
    INDEX 01 00:31:65
  TRACK 33 AUDIO
    TITLE "0:"
    INDEX 01 00:33:44
  TRACK 34 AUDIO
    TITLE "44:cjc024_8067"
    INDEX 01 00:34:32
  TRACK 35 AUDIO
    TITLE "0:"
    INDEX 01 00:35:68
  TRACK 36 AUDIO
    TITLE "43:cjc024_8068"
    INDEX 01 00:36:19
  TRACK 37 AUDIO
    TITLE "0:"
    INDEX 01 00:37:38
  TRACK 38 AUDIO
    TITLE "44:cjc024_8069"
    INDEX 01 00:38:24
  TRACK 39 AUDIO
    TITLE "0:"
    INDEX 01 00:39:41
  TRACK 40 AUDIO
    TITLE "43:cjc024_8070"
    INDEX 01 00:39:64
  TRACK 41 AUDIO
    TITLE "0:"
    INDEX 01 00:41:18
  TRACK 42 AUDIO
    TITLE "44:cjc024_8071"
    INDEX 01 00:42:06
  TRACK 43 AUDIO
    TITLE "0:"
    INDEX 01 00:44:11
  TRACK 44 AUDIO
    TITLE "43:cjc024_8072"
    INDEX 01 00:44:34
  TRACK 45 AUDIO
    TITLE "0:"
    INDEX 01 00:45:63
  TRACK 46 AUDIO
    TITLE "44:cjc024_8073"
    INDEX 01 00:46:51
  TRACK 47 AUDIO
    TITLE "0:"
    INDEX 01 00:50:05
  TRACK 48 AUDIO
    TITLE "43:cjc024_8074"
    INDEX 01 00:50:31
  TRACK 49 AUDIO
    TITLE "0:"
    INDEX 01 00:51:38
  TRACK 50 AUDIO
    TITLE "44:cjc024_8075"
    INDEX 01 00:52:26
  TRACK 51 AUDIO
    TITLE "0:"
    INDEX 01 00:54:23
  TRACK 52 AUDIO
    TITLE "43:cjc024_8076"
    INDEX 01 00:54:50
  TRACK 53 AUDIO
    TITLE "0:"
    INDEX 01 00:56:06
  TRACK 54 AUDIO
    TITLE "44:cjc024_8077"
    INDEX 01 00:56:69
  TRACK 55 AUDIO
    TITLE "0:"
    INDEX 01 00:57:70
  TRACK 56 AUDIO
    TITLE "43:cjc024_8078"
    INDEX 01 00:58:20
  TRACK 57 AUDIO
    TITLE "0:"
    INDEX 01 00:59:65
  TRACK 58 AUDIO
    TITLE "44:cjc024_8079"
    INDEX 01 01:00:59
  TRACK 59 AUDIO
    TITLE "0:"
    INDEX 01 01:02:08
  TRACK 60 AUDIO
    TITLE "43:cjc024_8080"
    INDEX 01 01:02:32
  TRACK 61 AUDIO
    TITLE "0:"
    INDEX 01 01:03:47
  TRACK 62 AUDIO
    TITLE "44:cjc024_8081"
    INDEX 01 01:04:33
  TRACK 63 AUDIO
    TITLE "0:"
    INDEX 01 01:05:52
  TRACK 64 AUDIO
    TITLE "43:cjc024_8082"
    INDEX 01 01:06:00
  TRACK 65 AUDIO
    TITLE "0:"
    INDEX 01 01:07:33
  TRACK 66 AUDIO
    TITLE "44:cjc024_8083"
    INDEX 01 01:08:21
  TRACK 67 AUDIO
    TITLE "0:"
    INDEX 01 01:10:43
  TRACK 68 AUDIO
    TITLE "43:cjc024_8084"
    INDEX 01 01:10:71
  TRACK 69 AUDIO
    TITLE "0:"
    INDEX 01 01:13:22
  TRACK 70 AUDIO
    TITLE "44:cjc024_8085"
    INDEX 01 01:14:10
  TRACK 71 AUDIO
    TITLE "0:"
    INDEX 01 01:16:67
  TRACK 72 AUDIO
    TITLE "43:cjc024_8086"
    INDEX 01 01:17:18
  TRACK 73 AUDIO
    TITLE "0:"
    INDEX 01 01:18:53
  TRACK 74 AUDIO
    TITLE "44:cjc024_8087"
    INDEX 01 01:19:40
  TRACK 75 AUDIO
    TITLE "0:"
    INDEX 01 01:21:72
  TRACK 76 AUDIO
    TITLE "43:cjc024_8088"
    INDEX 01 01:22:23
  TRACK 77 AUDIO
    TITLE "0:"
    INDEX 01 01:24:06
  TRACK 78 AUDIO
    TITLE "44:cjc024_8089"
    INDEX 01 01:24:73
  TRACK 79 AUDIO
    TITLE "0:"
    INDEX 01 01:26:62
  TRACK 80 AUDIO
    TITLE "43:cjc024_8090"
    INDEX 01 01:27:12
  TRACK 81 AUDIO
    TITLE "0:"
    INDEX 01 01:28:49
  TRACK 82 AUDIO
    TITLE "44:cjc024_8091"
    INDEX 01 01:29:37
  TRACK 83 AUDIO
    TITLE "0:"
    INDEX 01 01:30:73
  TRACK 84 AUDIO
    TITLE "43:cjc024_8092"
    INDEX 01 01:31:32
  TRACK 85 AUDIO
    TITLE "0:"
    INDEX 01 01:32:53
  TRACK 86 AUDIO
    TITLE "44:cjc024_8093"
    INDEX 01 01:33:40
  TRACK 87 AUDIO
    TITLE "0:"
    INDEX 01 01:36:60
  TRACK 88 AUDIO
    TITLE "43:cjc024_8094"
    INDEX 01 01:37:11
  TRACK 89 AUDIO
    TITLE "0:"
    INDEX 01 01:38:36
  TRACK 90 AUDIO
    TITLE "44:cjc024_8095"
    INDEX 01 01:39:23
  TRACK 91 AUDIO
    TITLE "0:"
    INDEX 01 01:40:27
  TRACK 92 AUDIO
    TITLE "43:cjc024_8096"
    INDEX 01 01:40:58
  TRACK 93 AUDIO
    TITLE "0:"
    INDEX 01 01:42:30
  TRACK 94 AUDIO
    TITLE "44:cjc024_8097"
    INDEX 01 01:43:21
  TRACK 95 AUDIO
    TITLE "0:"
    INDEX 01 01:44:44
  TRACK 96 AUDIO
    TITLE "43:cjc024_8098"
    INDEX 01 01:44:70
  TRACK 97 AUDIO
    TITLE "0:"
    INDEX 01 01:46:35
  TRACK 98 AUDIO
    TITLE "44:cjc024_8099"
    INDEX 01 01:47:23
  TRACK 99 AUDIO
    TITLE "0:"
    INDEX 01 01:49:24
  TRACK 100 AUDIO
    TITLE "43:cjc024_8100"
    INDEX 01 01:49:51
  TRACK 101 AUDIO
    TITLE "0:"
    INDEX 01 01:50:74
  TRACK 102 AUDIO
    TITLE "44:cjc024_8101"
    INDEX 01 01:51:68
  TRACK 103 AUDIO
    TITLE "0:"
    INDEX 01 01:53:61
  TRACK 104 AUDIO
    TITLE "43:cjc024_8102"
    INDEX 01 01:54:13
  TRACK 105 AUDIO
    TITLE "0:"
    INDEX 01 01:55:63
  TRACK 106 AUDIO
    TITLE "44:cjc024_8103"
    INDEX 01 01:56:51
  TRACK 107 AUDIO
    TITLE "0:"
    INDEX 01 01:58:46
  TRACK 108 AUDIO
    TITLE "43:cjc024_8104"
    INDEX 01 01:59:01
  TRACK 109 AUDIO
    TITLE "0:"
    INDEX 01 02:00:10
  TRACK 110 AUDIO
    TITLE "44:cjc024_8105"
    INDEX 01 02:00:72
  TRACK 111 AUDIO
    TITLE "0:"
    INDEX 01 02:03:08
  TRACK 112 AUDIO
    TITLE "43:cjc024_8106"
    INDEX 01 02:03:38
  TRACK 113 AUDIO
    TITLE "0:"
    INDEX 01 02:05:03
  TRACK 114 AUDIO
    TITLE "44:cjc024_8107"
    INDEX 01 02:05:66
  TRACK 115 AUDIO
    TITLE "0:"
    INDEX 01 02:07:57
  TRACK 116 AUDIO
    TITLE "43:cjc024_8108"
    INDEX 01 02:08:09
  TRACK 117 AUDIO
    TITLE "0:"
    INDEX 01 02:09:21
  TRACK 118 AUDIO
    TITLE "44:cjc024_8109"
    INDEX 01 02:10:10
  TRACK 119 AUDIO
    TITLE "0:"
    INDEX 01 02:13:56
  TRACK 120 AUDIO
    TITLE "43:cjc024_8110"
    INDEX 01 02:14:12
  TRACK 121 AUDIO
    TITLE "0:"
    INDEX 01 02:15:27
  TRACK 122 AUDIO
    TITLE "44:cjc024_8111"
    INDEX 01 02:16:11
  TRACK 123 AUDIO
    TITLE "0:"
    INDEX 01 02:18:02
  TRACK 124 AUDIO
    TITLE "43:cjc024_8112"
    INDEX 01 02:18:27
  TRACK 125 AUDIO
    TITLE "0:"
    INDEX 01 02:19:48
  TRACK 126 AUDIO
    TITLE "44:cjc024_8113"
    INDEX 01 02:20:38
  TRACK 127 AUDIO
    TITLE "0:"
    INDEX 01 02:22:37
  TRACK 128 AUDIO
    TITLE "43:cjc024_8114"
    INDEX 01 02:22:62
  TRACK 129 AUDIO
    TITLE "0:"
    INDEX 01 02:24:22
  TRACK 130 AUDIO
    TITLE "44:cjc024_8115"
    INDEX 01 02:25:12
  TRACK 131 AUDIO
    TITLE "0:"
    INDEX 01 02:28:34
  TRACK 132 AUDIO
    TITLE "43:cjc024_8116"
    INDEX 01 02:28:57
  TRACK 133 AUDIO
    TITLE "0:"
    INDEX 01 02:29:72
  TRACK 134 AUDIO
    TITLE "44:cjc024_8117"
    INDEX 01 02:30:62
  TRACK 135 AUDIO
    TITLE "0:"
    INDEX 01 02:32:10
  TRACK 136 AUDIO
    TITLE "43:cjc024_8118"
    INDEX 01 02:32:37
  TRACK 137 AUDIO
    TITLE "0:"
    INDEX 01 02:33:62
  TRACK 138 AUDIO
    TITLE "44:cjc024_8119"
    INDEX 01 02:34:50
  TRACK 139 AUDIO
    TITLE "0:"
    INDEX 01 02:36:04
  TRACK 140 AUDIO
    TITLE "43:cjc024_8120"
    INDEX 01 02:36:29
  TRACK 141 AUDIO
    TITLE "0:"
    INDEX 01 02:37:44
  TRACK 142 AUDIO
    TITLE "44:cjc024_8121"
    INDEX 01 02:38:32
  TRACK 143 AUDIO
    TITLE "0:"
    INDEX 01 02:39:51
  TRACK 144 AUDIO
    TITLE "43:cjc024_8122"
    INDEX 01 02:40:11
  TRACK 145 AUDIO
    TITLE "0:"
    INDEX 01 02:42:06
  TRACK 146 AUDIO
    TITLE "44:cjc024_8123"
    INDEX 01 02:42:67
  TRACK 147 AUDIO
    TITLE "0:"
    INDEX 01 02:44:01
  TRACK 148 AUDIO
    TITLE "43:cjc024_8124"
    INDEX 01 02:44:27
  TRACK 149 AUDIO
    TITLE "0:"
    INDEX 01 02:45:56
  TRACK 150 AUDIO
    TITLE "44:cjc024_8125"
    INDEX 01 02:46:39
  TRACK 151 AUDIO
    TITLE "0:"
    INDEX 01 02:48:11
  TRACK 152 AUDIO
    TITLE "43:cjc024_8126"
    INDEX 01 02:48:38
  TRACK 153 AUDIO
    TITLE "0:"
    INDEX 01 02:50:02
  TRACK 154 AUDIO
    TITLE "44:cjc024_8127"
    INDEX 01 02:50:65
  TRACK 155 AUDIO
    TITLE "0:"
    INDEX 01 02:53:00
  TRACK 156 AUDIO
    TITLE "43:cjc024_8128"
    INDEX 01 02:53:26
  TRACK 157 AUDIO
    TITLE "0:"
    INDEX 01 02:56:24
  TRACK 158 AUDIO
    TITLE "44:cjc024_8129"
    INDEX 01 02:57:10
  TRACK 159 AUDIO
    TITLE "0:"
    INDEX 01 02:58:35
  TRACK 160 AUDIO
    TITLE "43:cjc024_8130"
    INDEX 01 02:58:60
  TRACK 161 AUDIO
    TITLE "0:"
    INDEX 01 03:00:00
  TRACK 162 AUDIO
    TITLE "44:cjc024_8131"
    INDEX 01 03:00:63
  TRACK 163 AUDIO
    TITLE "0:"
    INDEX 01 03:02:29
  TRACK 164 AUDIO
    TITLE "43:cjc024_8132"
    INDEX 01 03:02:52
  TRACK 165 AUDIO
    TITLE "0:"
    INDEX 01 03:04:24
  TRACK 166 AUDIO
    TITLE "44:cjc024_8133"
    INDEX 01 03:05:11
  TRACK 167 AUDIO
    TITLE "0:"
    INDEX 01 03:07:06
  TRACK 168 AUDIO
    TITLE "43:cjc024_8134"
    INDEX 01 03:07:30
  TRACK 169 AUDIO
    TITLE "0:"
    INDEX 01 03:08:62
  TRACK 170 AUDIO
    TITLE "44:cjc024_8135"
    INDEX 01 03:09:50
  TRACK 171 AUDIO
    TITLE "0:"
    INDEX 01 03:11:51
  TRACK 172 AUDIO
    TITLE "43:cjc024_8136"
    INDEX 01 03:12:00
  TRACK 173 AUDIO
    TITLE "0:"
    INDEX 01 03:13:52
  TRACK 174 AUDIO
    TITLE "44:cjc024_8137"
    INDEX 01 03:14:42
  TRACK 175 AUDIO
    TITLE "0:"
    INDEX 01 03:16:64
  TRACK 176 AUDIO
    TITLE "43:cjc024_8138"
    INDEX 01 03:17:14
  TRACK 177 AUDIO
    TITLE "0:"
    INDEX 01 03:18:39
  TRACK 178 AUDIO
    TITLE "44:cjc024_8139"
    INDEX 01 03:19:29
  TRACK 179 AUDIO
    TITLE "0:"
    INDEX 01 03:20:42
  TRACK 180 AUDIO
    TITLE "43:cjc024_8140"
    INDEX 01 03:20:70
  TRACK 181 AUDIO
    TITLE "0:"
    INDEX 01 03:22:04
  TRACK 182 AUDIO
    TITLE "44:cjc024_8141"
    INDEX 01 03:22:68
  TRACK 183 AUDIO
    TITLE "0:"
    INDEX 01 03:25:24
  TRACK 184 AUDIO
    TITLE "43:cjc024_8142"
    INDEX 01 03:25:47
  TRACK 185 AUDIO
    TITLE "0:"
    INDEX 01 03:27:05
  TRACK 186 AUDIO
    TITLE "44:cjc024_8143"
    INDEX 01 03:27:70
  TRACK 187 AUDIO
    TITLE "0:"
    INDEX 01 03:29:61
  TRACK 188 AUDIO
    TITLE "43:cjc024_8144"
    INDEX 01 03:30:11
  TRACK 189 AUDIO
    TITLE "0:"
    INDEX 01 03:31:40
  TRACK 190 AUDIO
    TITLE "44:cjc024_8145"
    INDEX 01 03:32:32
  TRACK 191 AUDIO
    TITLE "0:"
    INDEX 01 03:34:01
  TRACK 192 AUDIO
    TITLE "43:cjc024_8146"
    INDEX 01 03:34:27
  TRACK 193 AUDIO
    TITLE "0:"
    INDEX 01 03:35:46
  TRACK 194 AUDIO
    TITLE "44:cjc024_8147"
    INDEX 01 03:36:33
  TRACK 195 AUDIO
    TITLE "0:"
    INDEX 01 03:37:56
  TRACK 196 AUDIO
    TITLE "43:cjc024_8148"
    INDEX 01 03:38:05
  TRACK 197 AUDIO
    TITLE "0:"
    INDEX 01 03:39:16
  TRACK 198 AUDIO
    TITLE "44:cjc024_8149"
    INDEX 01 03:40:04
  TRACK 199 AUDIO
    TITLE "0:"
    INDEX 01 03:41:48
  TRACK 200 AUDIO
    TITLE "43:cjc024_8150"
    INDEX 01 03:42:01
  TRACK 201 AUDIO
    TITLE "0:"
    INDEX 01 03:43:26
  TRACK 202 AUDIO
    TITLE "44:cjc024_8151"
    INDEX 01 03:44:15
  TRACK 203 AUDIO
    TITLE "0:"
    INDEX 01 03:45:50
  TRACK 204 AUDIO
    TITLE "43:cjc024_8152"
    INDEX 01 03:46:00
  TRACK 205 AUDIO
    TITLE "0:"
    INDEX 01 03:47:21
  TRACK 206 AUDIO
    TITLE "44:cjc024_8153"
    INDEX 01 03:48:15
  TRACK 207 AUDIO
    TITLE "0:"
    INDEX 01 03:51:21
  TRACK 208 AUDIO
    TITLE "43:cjc024_8154"
    INDEX 01 03:51:51
  TRACK 209 AUDIO
    TITLE "0:"
    INDEX 01 03:53:00
  TRACK 210 AUDIO
    TITLE "44:cjc024_8155"
    INDEX 01 03:53:65
  TRACK 211 AUDIO
    TITLE "0:"
    INDEX 01 03:55:60
  TRACK 212 AUDIO
    TITLE "43:cjc024_8156"
    INDEX 01 03:56:11
  TRACK 213 AUDIO
    TITLE "0:"
    INDEX 01 03:57:45
  TRACK 214 AUDIO
    TITLE "44:cjc024_8157"
    INDEX 01 03:58:37
  TRACK 215 AUDIO
    TITLE "0:"
    INDEX 01 04:00:38
  TRACK 216 AUDIO
    TITLE "43:cjc024_8158"
    INDEX 01 04:00:63
  TRACK 217 AUDIO
    TITLE "0:"
    INDEX 01 04:02:15
  TRACK 218 AUDIO
    TITLE "44:cjc024_8159"
    INDEX 01 04:03:01
  TRACK 219 AUDIO
    TITLE "0:"
    INDEX 01 04:04:16
  TRACK 220 AUDIO
    TITLE "43:cjc024_8160"
    INDEX 01 04:04:43
  TRACK 221 AUDIO
    TITLE "0:"
    INDEX 01 04:05:58
  TRACK 222 AUDIO
    TITLE "44:cjc024_8161"
    INDEX 01 04:06:48
  TRACK 223 AUDIO
    TITLE "0:"
    INDEX 01 04:08:39
  TRACK 224 AUDIO
    TITLE "43:cjc024_8162"
    INDEX 01 04:08:63
  TRACK 225 AUDIO
    TITLE "0:"
    INDEX 01 04:10:03
  TRACK 226 AUDIO
    TITLE "44:cjc024_8163"
    INDEX 01 04:10:67
  TRACK 227 AUDIO
    TITLE "0:"
    INDEX 01 04:14:03
  TRACK 228 AUDIO
    TITLE "43:cjc024_8164"
    INDEX 01 04:14:28
  TRACK 229 AUDIO
    TITLE "0:"
    INDEX 01 04:16:50
  TRACK 230 AUDIO
    TITLE "44:cjc024_8165"
    INDEX 01 04:17:38
  TRACK 231 AUDIO
    TITLE "0:"
    INDEX 01 04:19:33
  TRACK 232 AUDIO
    TITLE "43:cjc024_8166"
    INDEX 01 04:19:61
  TRACK 233 AUDIO
    TITLE "0:"
    INDEX 01 04:20:62
  TRACK 234 AUDIO
    TITLE "44:cjc024_8167"
    INDEX 01 04:21:52
  TRACK 235 AUDIO
    TITLE "0:"
    INDEX 01 04:23:70
  TRACK 236 AUDIO
    TITLE "43:cjc024_8168"
    INDEX 01 04:24:24
  TRACK 237 AUDIO
    TITLE "0:"
    INDEX 01 04:25:57
  TRACK 238 AUDIO
    TITLE "44:cjc024_8169"
    INDEX 01 04:26:53
  TRACK 239 AUDIO
    TITLE "0:"
    INDEX 01 04:28:48
  TRACK 240 AUDIO
    TITLE "43:cjc024_8170"
    INDEX 01 04:28:73
  TRACK 241 AUDIO
    TITLE "0:"
    INDEX 01 04:30:15
  TRACK 242 AUDIO
    TITLE "44:cjc024_8171"
    INDEX 01 04:31:03
  TRACK 243 AUDIO
    TITLE "0:"
    INDEX 01 04:33:65
  TRACK 244 AUDIO
    TITLE "43:cjc024_8172"
    INDEX 01 04:34:25
  TRACK 245 AUDIO
    TITLE "0:"
    INDEX 01 04:35:48
  TRACK 246 AUDIO
    TITLE "44:cjc024_8173"
    INDEX 01 04:36:32
  TRACK 247 AUDIO
    TITLE "0:"
    INDEX 01 04:39:30
  TRACK 248 AUDIO
    TITLE "43:cjc024_8174"
    INDEX 01 04:39:51
  TRACK 249 AUDIO
    TITLE "0:"
    INDEX 01 04:41:27
  TRACK 250 AUDIO
    TITLE "44:cjc024_8175"
    INDEX 01 04:42:17
  TRACK 251 AUDIO
    TITLE "0:"
    INDEX 01 04:44:19
  TRACK 252 AUDIO
    TITLE "43:cjc024_8176"
    INDEX 01 04:44:43
  TRACK 253 AUDIO
    TITLE "0:"
    INDEX 01 04:45:62
  TRACK 254 AUDIO
    TITLE "44:cjc024_8177"
    INDEX 01 04:46:52
  TRACK 255 AUDIO
    TITLE "0:"
    INDEX 01 04:48:64
  TRACK 256 AUDIO
    TITLE "43:cjc024_8178"
    INDEX 01 04:49:19
  TRACK 257 AUDIO
    TITLE "0:"
    INDEX 01 04:50:61
  TRACK 258 AUDIO
    TITLE "44:cjc024_8179"
    INDEX 01 04:51:51
  TRACK 259 AUDIO
    TITLE "0:"
    INDEX 01 04:54:41
  TRACK 260 AUDIO
    TITLE "43:cjc024_8180"
    INDEX 01 04:54:71
  TRACK 261 AUDIO
    TITLE "0:"
    INDEX 01 04:56:23
  TRACK 262 AUDIO
    TITLE "44:cjc024_8181"
    INDEX 01 04:57:10
  TRACK 263 AUDIO
    TITLE "0:"
    INDEX 01 04:58:29
  TRACK 264 AUDIO
    TITLE "43:cjc024_8182"
    INDEX 01 04:58:55
  TRACK 265 AUDIO
    TITLE "0:"
    INDEX 01 05:00:07
  TRACK 266 AUDIO
    TITLE "44:cjc024_8183"
    INDEX 01 05:00:65
  TRACK 267 AUDIO
    TITLE "0:"
    INDEX 01 05:02:54
  TRACK 268 AUDIO
    TITLE "43:cjc024_8184"
    INDEX 01 05:03:05
  TRACK 269 AUDIO
    TITLE "0:"
    INDEX 01 05:04:36
  TRACK 270 AUDIO
    TITLE "44:cjc024_8185"
    INDEX 01 05:05:23
  TRACK 271 AUDIO
    TITLE "0:"
    INDEX 01 05:06:41
  TRACK 272 AUDIO
    TITLE "43:cjc024_8186"
    INDEX 01 05:06:66
  TRACK 273 AUDIO
    TITLE "0:"
    INDEX 01 05:08:30
  TRACK 274 AUDIO
    TITLE "44:cjc024_8187"
    INDEX 01 05:09:15
  TRACK 275 AUDIO
    TITLE "0:"
    INDEX 01 05:11:08
  TRACK 276 AUDIO
    TITLE "43:cjc024_8188"
    INDEX 01 05:11:32
  TRACK 277 AUDIO
    TITLE "0:"
    INDEX 01 05:12:53
  TRACK 278 AUDIO
    TITLE "44:cjc024_8189"
    INDEX 01 05:13:43
  TRACK 279 AUDIO
    TITLE "0:"
    INDEX 01 05:15:47
  TRACK 280 AUDIO
    TITLE "43:cjc024_8190"
    INDEX 01 05:15:73
  TRACK 281 AUDIO
    TITLE "0:"
    INDEX 01 05:18:54
  TRACK 282 AUDIO
    TITLE "44:cjc024_8191"
    INDEX 01 05:19:37
  TRACK 283 AUDIO
    TITLE "0:"
    INDEX 01 05:20:52
  TRACK 284 AUDIO
    TITLE "43:cjc024_8192"
    INDEX 01 05:21:01
  TRACK 285 AUDIO
    TITLE "0:"
    INDEX 01 05:22:42
  TRACK 286 AUDIO
    TITLE "44:cjc024_8193"
    INDEX 01 05:23:31
  TRACK 287 AUDIO
    TITLE "0:"
    INDEX 01 05:25:34
  TRACK 288 AUDIO
    TITLE "43:cjc024_8194"
    INDEX 01 05:25:57
  TRACK 289 AUDIO
    TITLE "0:"
    INDEX 01 05:26:73
  TRACK 290 AUDIO
    TITLE "44:cjc024_8195"
    INDEX 01 05:27:58
  TRACK 291 AUDIO
    TITLE "0:"
    INDEX 01 05:29:28
  TRACK 292 AUDIO
    TITLE "43:cjc024_8196"
    INDEX 01 05:29:57
  TRACK 293 AUDIO
    TITLE "0:"
    INDEX 01 05:32:61
  TRACK 294 AUDIO
    TITLE "44:cjc024_8197"
    INDEX 01 05:33:49
  TRACK 295 AUDIO
    TITLE "0:"
    INDEX 01 05:34:70
  TRACK 296 AUDIO
    TITLE "43:cjc024_8198"
    INDEX 01 05:35:23
  TRACK 297 AUDIO
    TITLE "0:"
    INDEX 01 05:36:32
  TRACK 298 AUDIO
    TITLE "44:cjc024_8199"
    INDEX 01 05:37:20
  TRACK 299 AUDIO
    TITLE "0:"
    INDEX 01 05:39:30
  TRACK 300 AUDIO
    TITLE "43:cjc024_8200"
    INDEX 01 05:39:58
  TRACK 301 AUDIO
    TITLE "0:"
    INDEX 01 05:41:09
  TRACK 302 AUDIO
    TITLE "44:cjc024_8201"
    INDEX 01 05:41:72
  TRACK 303 AUDIO
    TITLE "0:"
    INDEX 01 05:44:04
  TRACK 304 AUDIO
    TITLE "43:cjc024_8202"
    INDEX 01 05:44:27
  TRACK 305 AUDIO
    TITLE "0:"
    INDEX 01 05:46:01
  TRACK 306 AUDIO
    TITLE "44:cjc024_8203"
    INDEX 01 05:46:66
  TRACK 307 AUDIO
    TITLE "0:"
    INDEX 01 05:48:60
  TRACK 308 AUDIO
    TITLE "43:cjc024_8204"
    INDEX 01 05:49:11
  TRACK 309 AUDIO
    TITLE "0:"
    INDEX 01 05:50:67
  TRACK 310 AUDIO
    TITLE "44:cjc024_8205"
    INDEX 01 05:51:57
  TRACK 311 AUDIO
    TITLE "0:"
    INDEX 01 05:53:21
  TRACK 312 AUDIO
    TITLE "43:cjc024_8206"
    INDEX 01 05:53:46
  TRACK 313 AUDIO
    TITLE "0:"
    INDEX 01 05:54:61
  TRACK 314 AUDIO
    TITLE "44:cjc024_8207"
    INDEX 01 05:55:51
  TRACK 315 AUDIO
    TITLE "0:"
    INDEX 01 05:57:71
  TRACK 316 AUDIO
    TITLE "43:cjc024_8208"
    INDEX 01 05:58:26
  TRACK 317 AUDIO
    TITLE "0:"
    INDEX 01 05:59:64
  TRACK 318 AUDIO
    TITLE "44:cjc024_8209"
    INDEX 01 06:00:52
  TRACK 319 AUDIO
    TITLE "0:"
    INDEX 01 06:02:00
  TRACK 320 AUDIO
    TITLE "43:cjc024_8210"
    INDEX 01 06:02:29
  TRACK 321 AUDIO
    TITLE "0:"
    INDEX 01 06:03:44
  TRACK 322 AUDIO
    TITLE "44:cjc024_8211"
    INDEX 01 06:04:36
  TRACK 323 AUDIO
    TITLE "0:"
    INDEX 01 06:05:47
  TRACK 324 AUDIO
    TITLE "43:cjc024_8212"
    INDEX 01 06:06:02
  TRACK 325 AUDIO
    TITLE "0:"
    INDEX 01 06:07:21
  TRACK 326 AUDIO
    TITLE "44:cjc024_8213"
    INDEX 01 06:08:08
  TRACK 327 AUDIO
    TITLE "0:"
    INDEX 01 06:09:27
  TRACK 328 AUDIO
    TITLE "43:cjc024_8214"
    INDEX 01 06:09:53
  TRACK 329 AUDIO
    TITLE "0:"
    INDEX 01 06:11:07
  TRACK 330 AUDIO
    TITLE "44:cjc024_8215"
    INDEX 01 06:11:69
  TRACK 331 AUDIO
    TITLE "0:"
    INDEX 01 06:13:19
  TRACK 332 AUDIO
    TITLE "43:cjc024_8216"
    INDEX 01 06:13:43
  TRACK 333 AUDIO
    TITLE "0:"
    INDEX 01 06:14:66
  TRACK 334 AUDIO
    TITLE "44:cjc024_8217"
    INDEX 01 06:15:53
  TRACK 335 AUDIO
    TITLE "0:"
    INDEX 01 06:17:46
  TRACK 336 AUDIO
    TITLE "43:cjc024_8218"
    INDEX 01 06:17:70
  TRACK 337 AUDIO
    TITLE "0:"
    INDEX 01 06:19:30
  TRACK 338 AUDIO
    TITLE "44:cjc024_8219"
    INDEX 01 06:20:15
  TRACK 339 AUDIO
    TITLE "0:"
    INDEX 01 06:22:36
  TRACK 340 AUDIO
    TITLE "43:cjc024_8220"
    INDEX 01 06:22:61
  TRACK 341 AUDIO
    TITLE "0:"
    INDEX 01 06:24:03
  TRACK 342 AUDIO
    TITLE "44:cjc024_8221"
    INDEX 01 06:24:68
  TRACK 343 AUDIO
    TITLE "0:"
    INDEX 01 06:26:14
  TRACK 344 AUDIO
    TITLE "43:cjc024_8222"
    INDEX 01 06:26:42
  TRACK 345 AUDIO
    TITLE "0:"
    INDEX 01 06:27:66
  TRACK 346 AUDIO
    TITLE "44:cjc024_8223"
    INDEX 01 06:28:56
  TRACK 347 AUDIO
    TITLE "0:"
    INDEX 01 06:30:28
  TRACK 348 AUDIO
    TITLE "43:cjc024_8224"
    INDEX 01 06:30:51
  TRACK 349 AUDIO
    TITLE "0:"
    INDEX 01 06:32:03
  TRACK 350 AUDIO
    TITLE "44:cjc024_8225"
    INDEX 01 06:32:66
  TRACK 351 AUDIO
    TITLE "0:"
    INDEX 01 06:34:16
  TRACK 352 AUDIO
    TITLE "43:cjc024_8226"
    INDEX 01 06:34:39
  TRACK 353 AUDIO
    TITLE "0:"
    INDEX 01 06:35:52
  TRACK 354 AUDIO
    TITLE "44:cjc024_8227"
    INDEX 01 06:36:40
  TRACK 355 AUDIO
    TITLE "0:"
    INDEX 01 06:38:19
  TRACK 356 AUDIO
    TITLE "43:cjc024_8228"
    INDEX 01 06:38:45
  TRACK 357 AUDIO
    TITLE "0:"
    INDEX 01 06:40:32
  TRACK 358 AUDIO
    TITLE "44:cjc024_8229"
    INDEX 01 06:41:20
  TRACK 359 AUDIO
    TITLE "0:"
    INDEX 01 06:45:11
  TRACK 360 AUDIO
    TITLE "43:cjc024_8230"
    INDEX 01 06:45:35
  TRACK 361 AUDIO
    TITLE "0:"
    INDEX 01 06:46:42
  TRACK 362 AUDIO
    TITLE "44:cjc024_8231"
    INDEX 01 06:47:30
  TRACK 363 AUDIO
    TITLE "0:"
    INDEX 01 06:50:24
  TRACK 364 AUDIO
    TITLE "43:cjc024_8232"
    INDEX 01 06:50:50
  TRACK 365 AUDIO
    TITLE "0:"
    INDEX 01 06:51:65
  TRACK 366 AUDIO
    TITLE "44:cjc024_8233"
    INDEX 01 06:52:55
  TRACK 367 AUDIO
    TITLE "0:"
    INDEX 01 06:54:06
  TRACK 368 AUDIO
    TITLE "43:cjc024_8234"
    INDEX 01 06:54:34
  TRACK 369 AUDIO
    TITLE "0:"
    INDEX 01 06:55:65
  TRACK 370 AUDIO
    TITLE "44:cjc024_8235"
    INDEX 01 06:56:50
  TRACK 371 AUDIO
    TITLE "0:"
    INDEX 01 06:58:34
  TRACK 372 AUDIO
    TITLE "43:cjc024_8236"
    INDEX 01 06:58:55
  TRACK 373 AUDIO
    TITLE "0:"
    INDEX 01 07:00:01
  TRACK 374 AUDIO
    TITLE "44:cjc024_8237"
    INDEX 01 07:00:62
  TRACK 375 AUDIO
    TITLE "0:"
    INDEX 01 07:02:31
  TRACK 376 AUDIO
    TITLE "43:cjc024_8238"
    INDEX 01 07:02:57
  TRACK 377 AUDIO
    TITLE "0:"
    INDEX 01 07:04:07
  TRACK 378 AUDIO
    TITLE "44:cjc024_8239"
    INDEX 01 07:04:72
  TRACK 379 AUDIO
    TITLE "0:"
    INDEX 01 07:06:61
  TRACK 380 AUDIO
    TITLE "43:cjc024_8240"
    INDEX 01 07:07:11
  TRACK 381 AUDIO
    TITLE "0:"
    INDEX 01 07:08:34
  TRACK 382 AUDIO
    TITLE "44:cjc024_8241"
    INDEX 01 07:09:26
  TRACK 383 AUDIO
    TITLE "0:"
    INDEX 01 07:11:42
  TRACK 384 AUDIO
    TITLE "43:cjc024_8242"
    INDEX 01 07:11:70
  TRACK 385 AUDIO
    TITLE "0:"
    INDEX 01 07:13:25
  TRACK 386 AUDIO
    TITLE "44:cjc024_8243"
    INDEX 01 07:14:13
  TRACK 387 AUDIO
    TITLE "0:"
    INDEX 01 07:15:56
  TRACK 388 AUDIO
    TITLE "43:cjc024_8244"
    INDEX 01 07:16:02
  TRACK 389 AUDIO
    TITLE "0:"
    INDEX 01 07:17:41
  TRACK 390 AUDIO
    TITLE "44:cjc024_8245"
    INDEX 01 07:18:29
  TRACK 391 AUDIO
    TITLE "0:"
    INDEX 01 07:19:42
  TRACK 392 AUDIO
    TITLE "43:cjc024_8246"
    INDEX 01 07:19:65
  TRACK 393 AUDIO
    TITLE "0:"
    INDEX 01 07:21:09
  TRACK 394 AUDIO
    TITLE "44:cjc024_8247"
    INDEX 01 07:21:74
  TRACK 395 AUDIO
    TITLE "0:"
    INDEX 01 07:23:71
  TRACK 396 AUDIO
    TITLE "43:cjc024_8248"
    INDEX 01 07:24:19
  TRACK 397 AUDIO
    TITLE "0:"
    INDEX 01 07:25:50
  TRACK 398 AUDIO
    TITLE "44:cjc024_8249"
    INDEX 01 07:26:36
  TRACK 399 AUDIO
    TITLE "0:"
    INDEX 01 07:28:23
  TRACK 400 AUDIO
    TITLE "43:cjc024_8250"
    INDEX 01 07:28:48
  TRACK 401 AUDIO
    TITLE "0:"
    INDEX 01 07:30:12
  TRACK 402 AUDIO
    TITLE "44:cjc024_8251"
    INDEX 01 07:31:00
  TRACK 403 AUDIO
    TITLE "0:"
    INDEX 01 07:32:68
  TRACK 404 AUDIO
    TITLE "43:cjc024_8252"
    INDEX 01 07:33:18
  TRACK 405 AUDIO
    TITLE "0:"
    INDEX 01 07:34:37
  TRACK 406 AUDIO
    TITLE "44:cjc024_8253"
    INDEX 01 07:35:25
  TRACK 407 AUDIO
    TITLE "0:"
    INDEX 01 07:37:24
  TRACK 408 AUDIO
    TITLE "43:cjc024_8254"
    INDEX 01 07:37:51
  TRACK 409 AUDIO
    TITLE "0:"
    INDEX 01 07:38:72
  TRACK 410 AUDIO
    TITLE "44:cjc024_8255"
    INDEX 01 07:39:66
  TRACK 411 AUDIO
    TITLE "0:"
    INDEX 01 07:42:02
  TRACK 412 AUDIO
    TITLE "43:cjc024_8256"
    INDEX 01 07:42:25
  TRACK 413 AUDIO
    TITLE "0:"
    INDEX 01 07:44:18
  TRACK 414 AUDIO
    TITLE "44:cjc024_8257"
    INDEX 01 07:45:10
  TRACK 415 AUDIO
    TITLE "0:"
    INDEX 01 07:46:74
  TRACK 416 AUDIO
    TITLE "43:cjc024_8258"
    INDEX 01 07:47:24
  TRACK 417 AUDIO
    TITLE "0:"
    INDEX 01 07:49:11
  TRACK 418 AUDIO
    TITLE "44:cjc024_8259"
    INDEX 01 07:50:05
  TRACK 419 AUDIO
    TITLE "0:"
    INDEX 01 07:51:63
  TRACK 420 AUDIO
    TITLE "43:cjc024_8260"
    INDEX 01 07:52:16
  TRACK 421 AUDIO
    TITLE "0:"
    INDEX 01 07:53:45
  TRACK 422 AUDIO
    TITLE "44:cjc024_8261"
    INDEX 01 07:54:32
  TRACK 423 AUDIO
    TITLE "0:"
    INDEX 01 07:56:17
  TRACK 424 AUDIO
    TITLE "43:cjc024_8262"
    INDEX 01 07:56:43
  TRACK 425 AUDIO
    TITLE "0:"
    INDEX 01 07:58:10
  TRACK 426 AUDIO
    TITLE "44:cjc024_8263"
    INDEX 01 07:58:73
  TRACK 427 AUDIO
    TITLE "0:"
    INDEX 01 08:00:74
  TRACK 428 AUDIO
    TITLE "43:cjc024_8264"
    INDEX 01 08:01:22
  TRACK 429 AUDIO
    TITLE "0:"
    INDEX 01 08:02:61
  TRACK 430 AUDIO
    TITLE "44:cjc024_8265"
    INDEX 01 08:03:61
  TRACK 431 AUDIO
    TITLE "0:"
    INDEX 01 08:05:22
  TRACK 432 AUDIO
    TITLE "43:cjc024_8266"
    INDEX 01 08:05:50
  TRACK 433 AUDIO
    TITLE "0:"
    INDEX 01 08:06:73
  TRACK 434 AUDIO
    TITLE "44:cjc024_8267"
    INDEX 01 08:07:58
  TRACK 435 AUDIO
    TITLE "0:"
    INDEX 01 08:10:41
  TRACK 436 AUDIO
    TITLE "43:cjc024_8268"
    INDEX 01 08:10:68
  TRACK 437 AUDIO
    TITLE "0:"
    INDEX 01 08:12:16
  TRACK 438 AUDIO
    TITLE "44:cjc024_8269"
    INDEX 01 08:13:06
  TRACK 439 AUDIO
    TITLE "0:"
    INDEX 01 08:14:68
  TRACK 440 AUDIO
    TITLE "43:cjc024_8270"
    INDEX 01 08:15:27
  TRACK 441 AUDIO
    TITLE "0:"
    INDEX 01 08:16:42
  TRACK 442 AUDIO
    TITLE "44:cjc024_8271"
    INDEX 01 08:17:31
  TRACK 443 AUDIO
    TITLE "0:"
    INDEX 01 08:19:09
  TRACK 444 AUDIO
    TITLE "43:cjc024_8272"
    INDEX 01 08:19:32
  TRACK 445 AUDIO
    TITLE "0:"
    INDEX 01 08:21:25
  TRACK 446 AUDIO
    TITLE "44:cjc024_8273"
    INDEX 01 08:22:13
  TRACK 447 AUDIO
    TITLE "0:"
    INDEX 01 08:23:48
  TRACK 448 AUDIO
    TITLE "43:cjc024_8274"
    INDEX 01 08:23:71
  TRACK 449 AUDIO
    TITLE "0:"
    INDEX 01 08:25:07
  TRACK 450 AUDIO
    TITLE "44:cjc024_8275"
    INDEX 01 08:25:68
  TRACK 451 AUDIO
    TITLE "0:"
    INDEX 01 08:28:47
  TRACK 452 AUDIO
    TITLE "43:cjc024_8276"
    INDEX 01 08:28:68
  TRACK 453 AUDIO
    TITLE "0:"
    INDEX 01 08:30:54
  TRACK 454 AUDIO
    TITLE "44:cjc024_8277"
    INDEX 01 08:31:43
  TRACK 455 AUDIO
    TITLE "0:"
    INDEX 01 08:33:42
  TRACK 456 AUDIO
    TITLE "43:cjc024_8278"
    INDEX 01 08:33:68
  TRACK 457 AUDIO
    TITLE "0:"
    INDEX 01 08:35:17
  TRACK 458 AUDIO
    TITLE "44:cjc024_8279"
    INDEX 01 08:36:15
  TRACK 459 AUDIO
    TITLE "0:"
    INDEX 01 08:37:22
  TRACK 460 AUDIO
    TITLE "43:cjc024_8280"
    INDEX 01 08:37:52
  TRACK 461 AUDIO
    TITLE "0:"
    INDEX 01 08:39:11
  TRACK 462 AUDIO
    TITLE "44:cjc024_8281"
    INDEX 01 08:39:74
  TRACK 463 AUDIO
    TITLE "0:"
    INDEX 01 08:41:55
  TRACK 464 AUDIO
    TITLE "43:cjc024_8282"
    INDEX 01 08:42:08
  TRACK 465 AUDIO
    TITLE "0:"
    INDEX 01 08:43:46
  TRACK 466 AUDIO
    TITLE "44:cjc024_8283"
    INDEX 01 08:44:40
  TRACK 467 AUDIO
    TITLE "0:"
    INDEX 01 08:46:56
  TRACK 468 AUDIO
    TITLE "43:cjc024_8284"
    INDEX 01 08:47:09
  TRACK 469 AUDIO
    TITLE "0:"
    INDEX 01 08:48:42
  TRACK 470 AUDIO
    TITLE "44:cjc024_8285"
    INDEX 01 08:49:25
  TRACK 471 AUDIO
    TITLE "0:"
    INDEX 01 08:51:38
  TRACK 472 AUDIO
    TITLE "43:cjc024_8286"
    INDEX 01 08:51:63
  TRACK 473 AUDIO
    TITLE "0:"
    INDEX 01 08:53:31
  TRACK 474 AUDIO
    TITLE "44:cjc024_8287"
    INDEX 01 08:54:21
  TRACK 475 AUDIO
    TITLE "0:"
    INDEX 01 08:55:50
  TRACK 476 AUDIO
    TITLE "43:cjc024_8288"
    INDEX 01 08:55:73
  TRACK 477 AUDIO
    TITLE "0:"
    INDEX 01 08:57:68
  TRACK 478 AUDIO
    TITLE "44:cjc024_8289"
    INDEX 01 08:58:54
  TRACK 479 AUDIO
    TITLE "0:"
    INDEX 01 09:00:21
  TRACK 480 AUDIO
    TITLE "43:cjc024_8290"
    INDEX 01 09:00:47
  TRACK 481 AUDIO
    TITLE "0:"
    INDEX 01 09:02:03
